<svg id="Layer_1" data-name="Layer 1" xmlns="http://www.w3.org/2000/svg" viewBox="0 0 24 24"><defs><style>.cls-1{fill:none;stroke:#000;stroke-miterlimit:10;stroke-width:1.91px}</style></defs><path class="cls-1" d="M6.27 22.5h7.57a4.77 4.77 0 0 0 3.38-1.4l4.71-4.71a2 2 0 0 0-2.86-2.87l-5.16 5.16H13a1.91 1.91 0 0 0 1.88-2.23 2 2 0 0 0-2-1.59H9.14l-.93-.46a4.66 4.66 0 0 0-5 .55 4.57 4.57 0 0 0-1.71 3.62v.11M12.96 18.68H8.18M5.32 1.5h1.91A4.77 4.77 0 0 1 12 6.27h-1.91A4.77 4.77 0 0 1 5.32 1.5z"/><path class="cls-1" d="M16.77 2.45h1.91a4.77 4.77 0 0 1-4.77 4.77H12a4.77 4.77 0 0 1 4.77-4.77z" transform="rotate(-180 15.34 4.84)"/><path class="cls-1" d="M12 10.09V6.27M7.3 14.06a4.77 4.77 0 0 1 9.47.8 4.21 4.21 0 0 1-.12 1.08"/></svg>