<?xml version="1.0" encoding="utf-8"?>
<!-- Generator: Adobe Illustrator 27.5.0, SVG Export Plug-In . SVG Version: 6.00 Build 0)  -->
<svg version="1.1" xmlns="http://www.w3.org/2000/svg" xmlns:xlink="http://www.w3.org/1999/xlink" x="0px" y="0px"
	 viewBox="0 0 500 500" style="enable-background:new 0 0 500 500;" xml:space="preserve">
<g id="Background_Simple">
	<g>
		<path style="fill:#C6FF00;" d="M452.038,326.136c8.832-69.734-33.96-162.417-78.326-200.69
			c-80.094-69.094-146.634-55.732-198.387-30.983c-51.753,24.749-59.146,107.371-94.881,144.754
			C44.71,276.6,24.382,326.882,78.6,376.935c54.218,50.054,97.957,24.62,154.639,21.448c56.682-3.172,131.847,21.82,172.512,0.088
			C434.146,383.296,448.134,356.958,452.038,326.136z"/>
		<path style="opacity:0.7;fill:#FFFFFF;" d="M452.038,326.136c8.832-69.734-33.96-162.417-78.326-200.69
			c-80.094-69.094-146.634-55.732-198.387-30.983c-51.753,24.749-59.146,107.371-94.881,144.754
			C44.71,276.6,24.382,326.882,78.6,376.935c54.218,50.054,97.957,24.62,154.639,21.448c56.682-3.172,131.847,21.82,172.512,0.088
			C434.146,383.296,448.134,356.958,452.038,326.136z"/>
	</g>
</g>
<g id="Ground">
	<g>
		<path style="fill:#C6FF00;" d="M50.335,337.919c5.045,12.865,14.11,25.948,28.265,39.016
			c54.218,50.054,97.957,24.62,154.639,21.448c56.682-3.172,131.847,21.82,172.512,0.088c24.701-13.202,38.496-34.853,44.237-60.552
			H50.335z"/>
		<path style="opacity:0.5;fill:#FFFFFF;" d="M50.335,337.919c5.045,12.865,14.11,25.948,28.265,39.016
			c54.218,50.054,97.957,24.62,154.639,21.448c56.682-3.172,131.847,21.82,172.512,0.088c24.701-13.202,38.496-34.853,44.237-60.552
			H50.335z"/>
	</g>
</g>
<g id="Clouds">
	<g>
		<g>
			<path style="fill:#FFFFFF;" d="M227.643,188.749c-6.375-3.477-9.272-0.579-11.59-3.477c-2.318-2.898,6.374-10.432-11.011-17.965
				c0,0-1.159-16.226-24.919-16.806c-23.76-0.579-17.385,16.227-23.76,20.283c-6.375,4.056-8.113-2.318-14.488,1.738
				c-6.375,4.057-3.477,12.17-8.692,13.329c-5.216,1.159-12.17-5.215-18.544-1.159c-6.375,4.057-6.375,7.534-9.273,7.534
				c-2.897,0-8.693-2.318-12.17,0c-3.477,2.318-7.534,5.216-7.534,5.216h146.617C232.279,197.442,234.017,192.226,227.643,188.749z"
				/>
		</g>
		<g>
			<path style="fill:#FFFFFF;" d="M277.76,121.647c-3.192-1.741-4.643-0.29-5.804-1.741c-1.161-1.451,3.192-5.224-5.514-8.996
				c0,0-0.58-8.125-12.478-8.416c-11.898-0.29-8.706,8.126-11.898,10.157c-3.192,2.031-4.063-1.161-7.255,0.871
				c-3.192,2.031-1.741,6.094-4.353,6.675c-2.612,0.58-6.094-2.612-9.286-0.581c-3.192,2.031-3.192,3.773-4.643,3.773
				c-1.451,0-4.353-1.161-6.094,0c-1.741,1.161-3.772,2.612-3.772,2.612h73.419C280.081,126,280.952,123.388,277.76,121.647z"/>
		</g>
		<g>
			<path style="fill:#FFFFFF;" d="M347.76,156.647c-3.192-1.741-4.643-0.29-5.804-1.741c-1.161-1.451,3.192-5.224-5.514-8.996
				c0,0-0.58-8.125-12.478-8.416c-11.898-0.29-8.706,8.126-11.898,10.157c-3.192,2.031-4.063-1.161-7.255,0.871
				c-3.192,2.031-1.741,6.094-4.353,6.675c-2.612,0.58-6.094-2.612-9.286-0.581c-3.192,2.031-3.192,3.773-4.643,3.773
				c-1.451,0-4.353-1.161-6.094,0c-1.741,1.161-3.772,2.612-3.772,2.612h73.419C350.081,161,350.952,158.388,347.76,156.647z"/>
		</g>
	</g>
</g>
<g id="Trees">
	<g>
		<g>
			<g>
				<path style="fill:#C6FF00;" d="M49.764,309.793c0,0,14.403,1.425,21.704,10.354c0,0,7.713-10.344,21.566-10.132
					c4.02-4.845,6.438-11.067,6.44-17.855c0.005-15.462-12.525-28.001-27.987-28.006c-15.462-0.005-28.001,12.525-28.006,27.987
					c-0.002,6.703,2.352,12.855,6.279,17.676L49.764,309.793z"/>
				<path style="opacity:0.3;fill:#FFFFFF;" d="M49.764,309.793c0,0,14.403,1.425,21.704,10.354c0,0,7.713-10.344,21.566-10.132
					c4.02-4.845,6.438-11.067,6.44-17.855c0.005-15.462-12.525-28.001-27.987-28.006c-15.462-0.005-28.001,12.525-28.006,27.987
					c-0.002,6.703,2.352,12.855,6.279,17.676L49.764,309.793z"/>
				<g>
					<polygon style="fill:#263238;" points="70.992,266.128 70.505,338.333 72.936,338.333 					"/>
					<path style="fill:#263238;" d="M71.721,317.425c0,0,4.862-8.752,13.614-11.426c0,0-9.238,2.188-13.857,9.725L71.721,317.425z"
						/>
					<path style="fill:#263238;" d="M71.721,292.628c0,0,4.862-8.752,13.614-11.426c0,0-9.238,2.188-13.857,9.725L71.721,292.628z"
						/>
					<path style="fill:#263238;" d="M71.721,305.027c0,0,4.862-8.752,13.614-11.426c0,0-9.238,2.188-13.857,9.725L71.721,305.027z"
						/>
					<path style="fill:#263238;" d="M71,298.949c0,0-4.692-8.752-13.137-11.426c0,0,8.914,2.188,13.371,9.725L71,298.949z"/>
					<path style="fill:#263238;" d="M71,311.104c0,0-4.692-8.752-13.137-11.426c0,0,8.914,2.188,13.371,9.725L71,311.104z"/>
				</g>
			</g>
			<g>
				<path style="fill:#C6FF00;" d="M94.429,304.32c0,0,17.166,1.698,25.866,12.34c0,0,9.192-12.328,25.701-12.075
					c4.791-5.774,7.673-13.19,7.676-21.279c0.006-18.427-14.927-33.371-33.354-33.377c-18.427-0.006-33.371,14.927-33.377,33.354
					c-0.003,7.988,2.803,15.32,7.483,21.066L94.429,304.32z"/>
				<path style="opacity:0.5;fill:#FFFFFF;" d="M94.429,304.32c0,0,17.166,1.698,25.866,12.34c0,0,9.192-12.328,25.701-12.075
					c4.791-5.774,7.673-13.19,7.676-21.279c0.006-18.427-14.927-33.371-33.354-33.377c-18.427-0.006-33.371,14.927-33.377,33.354
					c-0.003,7.988,2.803,15.32,7.483,21.066L94.429,304.32z"/>
				<g>
					<polygon style="fill:#263238;" points="119.727,252.281 119.148,338.333 122.045,338.333 					"/>
					<path style="fill:#263238;" d="M120.596,313.416c0,0,5.795-10.431,16.225-13.618c0,0-11.01,2.608-16.515,11.59L120.596,313.416
						z"/>
					<path style="fill:#263238;" d="M120.596,283.862c0,0,5.795-10.431,16.225-13.618c0,0-11.01,2.608-16.515,11.59L120.596,283.862
						z"/>
					<path style="fill:#263238;" d="M120.596,298.639c0,0,5.795-10.431,16.225-13.618c0,0-11.01,2.608-16.515,11.59L120.596,298.639
						z"/>
					<path style="fill:#263238;" d="M119.737,291.396c0,0-5.591-10.431-15.656-13.618c0,0,10.624,2.608,15.936,11.59
						L119.737,291.396z"/>
					<path style="fill:#263238;" d="M119.737,305.883c0,0-5.591-10.431-15.656-13.618c0,0,10.624,2.608,15.936,11.59
						L119.737,305.883z"/>
				</g>
			</g>
			<g>
				<path style="fill:#C6FF00;" d="M140.524,314.257c0,0,12.151,1.202,18.309,8.734c0,0,6.506-8.726,18.193-8.547
					c3.391-4.087,5.431-9.336,5.433-15.062c0.005-13.044-10.566-23.621-23.609-23.626c-13.044-0.005-23.621,10.566-23.626,23.609
					c-0.002,5.654,1.984,10.844,5.297,14.912L140.524,314.257z"/>
				<path style="opacity:0.5;fill:#FFFFFF;" d="M140.524,314.257c0,0,12.151,1.202,18.309,8.734c0,0,6.506-8.726,18.193-8.547
					c3.391-4.087,5.431-9.336,5.433-15.062c0.005-13.044-10.566-23.621-23.609-23.626c-13.044-0.005-23.621,10.566-23.626,23.609
					c-0.002,5.654,1.984,10.844,5.297,14.912L140.524,314.257z"/>
				<g>
					<polygon style="fill:#263238;" points="158.432,277.421 158.021,338.333 160.072,338.333 					"/>
					<path style="fill:#263238;" d="M159.047,320.695c0,0,4.102-7.383,11.485-9.639c0,0-7.793,1.846-11.69,8.204L159.047,320.695z"
						/>
					<path style="fill:#263238;" d="M159.047,299.776c0,0,4.102-7.383,11.485-9.639c0,0-7.793,1.846-11.69,8.204L159.047,299.776z"
						/>
					<path style="fill:#263238;" d="M159.047,310.236c0,0,4.102-7.383,11.485-9.639c0,0-7.793,1.846-11.69,8.204L159.047,310.236z"
						/>
					<path style="fill:#263238;" d="M158.439,305.109c0,0-3.958-7.383-11.082-9.639c0,0,7.52,1.846,11.28,8.204L158.439,305.109z"/>
					<path style="fill:#263238;" d="M158.439,315.363c0,0-3.958-7.383-11.082-9.639c0,0,7.52,1.846,11.28,8.204L158.439,315.363z"/>
				</g>
			</g>
		</g>
		<g>
			<path style="fill:#C6FF00;" d="M372.07,309.793c0,0,14.403,1.425,21.704,10.354c0,0,7.713-10.344,21.566-10.132
				c4.02-4.845,6.438-11.067,6.44-17.855c0.005-15.462-12.525-28.001-27.987-28.006c-15.462-0.005-28.001,12.525-28.006,27.987
				c-0.002,6.703,2.352,12.855,6.279,17.676L372.07,309.793z"/>
			<path style="opacity:0.3;fill:#FFFFFF;" d="M372.07,309.793c0,0,14.403,1.425,21.704,10.354c0,0,7.713-10.344,21.566-10.132
				c4.02-4.845,6.438-11.067,6.44-17.855c0.005-15.462-12.525-28.001-27.987-28.006c-15.462-0.005-28.001,12.525-28.006,27.987
				c-0.002,6.703,2.352,12.855,6.279,17.676L372.07,309.793z"/>
			<g>
				<polygon style="fill:#263238;" points="393.297,266.128 392.811,338.333 395.242,338.333 				"/>
				<path style="fill:#263238;" d="M394.026,317.425c0,0,4.862-8.752,13.614-11.426c0,0-9.238,2.188-13.858,9.725L394.026,317.425z"
					/>
				<path style="fill:#263238;" d="M394.026,292.628c0,0,4.862-8.752,13.614-11.426c0,0-9.238,2.188-13.858,9.725L394.026,292.628z"
					/>
				<path style="fill:#263238;" d="M394.026,305.027c0,0,4.862-8.752,13.614-11.426c0,0-9.238,2.188-13.858,9.725L394.026,305.027z"
					/>
				<path style="fill:#263238;" d="M393.306,298.949c0,0-4.692-8.752-13.137-11.426c0,0,8.914,2.188,13.371,9.725L393.306,298.949z"
					/>
				<path style="fill:#263238;" d="M393.306,311.104c0,0-4.692-8.752-13.137-11.426c0,0,8.914,2.188,13.371,9.725L393.306,311.104z"
					/>
			</g>
		</g>
		<g>
			<path style="fill:#C6FF00;" d="M400.598,300.115c0,0,19.288,1.908,29.064,13.865c0,0,10.328-13.851,28.879-13.568
				c5.383-6.488,8.621-14.82,8.624-23.909c0.007-20.705-16.772-37.496-37.477-37.503c-20.705-0.007-37.496,16.772-37.503,37.477
				c-0.003,8.976,3.15,17.214,8.408,23.67L400.598,300.115z"/>
			<path style="opacity:0.5;fill:#FFFFFF;" d="M400.598,300.115c0,0,19.288,1.908,29.064,13.865c0,0,10.328-13.851,28.879-13.568
				c5.383-6.488,8.621-14.82,8.624-23.909c0.007-20.705-16.772-37.496-37.477-37.503c-20.705-0.007-37.496,16.772-37.503,37.477
				c-0.003,8.976,3.15,17.214,8.408,23.67L400.598,300.115z"/>
			<g>
				<polygon style="fill:#263238;" points="429.023,241.643 428.372,338.333 431.628,338.333 				"/>
				<path style="fill:#263238;" d="M430,310.336c0,0,6.511-11.72,18.231-15.301c0,0-12.371,2.93-18.557,13.022L430,310.336z"/>
				<path style="fill:#263238;" d="M430,277.129c0,0,6.511-11.72,18.231-15.301c0,0-12.371,2.93-18.557,13.022L430,277.129z"/>
				<path style="fill:#263238;" d="M430,293.732c0,0,6.511-11.72,18.231-15.301c0,0-12.371,2.93-18.557,13.022L430,293.732z"/>
				<path style="fill:#263238;" d="M429.035,285.593c0,0-6.283-11.72-17.591-15.301c0,0,11.937,2.93,17.906,13.022L429.035,285.593z
					"/>
				<path style="fill:#263238;" d="M429.035,301.871c0,0-6.283-11.72-17.591-15.301c0,0,11.937,2.93,17.906,13.022L429.035,301.871z
					"/>
			</g>
		</g>
	</g>
</g>
<g id="Windmill">
	<g>
		<polygon style="fill:#263238;stroke:#263238;stroke-linecap:round;stroke-linejoin:round;stroke-miterlimit:10;" points="
			408.333,143.533 439,148.333 439,124.333 408.333,129.133 		"/>
		<polygon style="fill:none;stroke:#263238;stroke-linecap:round;stroke-linejoin:round;stroke-miterlimit:10;" points="
			394.122,134.027 383.789,338.333 404.455,338.333 		"/>
		
			<line style="fill:none;stroke:#263238;stroke-linecap:round;stroke-linejoin:round;stroke-miterlimit:10;" x1="394.333" y1="134.343" x2="394.333" y2="121.353"/>
		
			<line style="fill:none;stroke:#263238;stroke-linecap:round;stroke-linejoin:round;stroke-miterlimit:10;" x1="383.095" y1="134.531" x2="405.258" y2="134.531"/>
		<polygon style="fill:none;stroke:#263238;stroke-linecap:round;stroke-linejoin:round;stroke-miterlimit:10;" points="
			399.398,240.145 388.673,240.145 396.627,190.946 391.444,190.946 		"/>
		<g>
			<polygon style="fill:#C6FF00;stroke:#263238;stroke-linecap:round;stroke-linejoin:round;stroke-miterlimit:10;" points="
				385.19,130.092 384.39,134.628 363.189,132.449 364.522,124.889 			"/>
			<polygon style="fill:#263238;stroke:#263238;stroke-linecap:round;stroke-linejoin:round;stroke-miterlimit:10;" points="
				384.287,133.476 385.087,138.012 364.419,143.215 363.086,135.655 			"/>
			<polygon style="fill:#C6FF00;stroke:#263238;stroke-linecap:round;stroke-linejoin:round;stroke-miterlimit:10;" points="
				384.597,136.964 386.9,140.953 369.258,152.911 365.42,146.263 			"/>
			<polygon style="fill:#263238;stroke:#263238;stroke-linecap:round;stroke-linejoin:round;stroke-miterlimit:10;" points="
				386.081,140.136 389.609,143.097 377.121,160.367 371.241,155.433 			"/>
			<polygon style="fill:#C6FF00;stroke:#263238;stroke-linecap:round;stroke-linejoin:round;stroke-miterlimit:10;" points="
				388.56,142.609 392.888,144.185 387.06,164.685 379.847,162.06 			"/>
			<polygon style="fill:#263238;stroke:#263238;stroke-linecap:round;stroke-linejoin:round;stroke-miterlimit:10;" points="
				391.735,144.086 396.341,144.086 397.876,165.343 390.2,165.343 			"/>
			<polygon style="fill:#C6FF00;stroke:#263238;stroke-linecap:round;stroke-linejoin:round;stroke-miterlimit:10;" points="
				395.224,144.387 399.552,142.811 408.265,162.262 401.052,164.887 			"/>
			<polygon style="fill:#263238;stroke:#263238;stroke-linecap:round;stroke-linejoin:round;stroke-miterlimit:10;" points="
				398.606,143.476 402.134,140.516 416.974,155.813 411.093,160.747 			"/>
			<polygon style="fill:#C6FF00;stroke:#263238;stroke-linecap:round;stroke-linejoin:round;stroke-miterlimit:10;" points="
				401.472,141.464 403.775,137.476 422.951,146.775 419.113,153.422 			"/>
			<polygon style="fill:#263238;stroke:#263238;stroke-linecap:round;stroke-linejoin:round;stroke-miterlimit:10;" points="
				403.477,138.593 404.277,134.058 425.478,136.237 424.145,143.796 			"/>
			<polygon style="fill:#C6FF00;stroke:#263238;stroke-linecap:round;stroke-linejoin:round;stroke-miterlimit:10;" points="
				404.379,135.21 403.579,130.674 424.247,125.471 425.58,133.03 			"/>
			<polygon style="fill:#263238;stroke:#263238;stroke-linecap:round;stroke-linejoin:round;stroke-miterlimit:10;" points="
				404.07,131.721 401.767,127.733 419.409,115.775 423.247,122.422 			"/>
			<polygon style="fill:#C6FF00;stroke:#263238;stroke-linecap:round;stroke-linejoin:round;stroke-miterlimit:10;" points="
				402.586,128.549 399.058,125.589 411.546,108.318 417.426,113.252 			"/>
			<polygon style="fill:#263238;stroke:#263238;stroke-linecap:round;stroke-linejoin:round;stroke-miterlimit:10;" points="
				400.107,126.076 395.779,124.501 401.607,104.001 408.82,106.626 			"/>
			<polygon style="fill:#263238;stroke:#263238;stroke-linecap:round;stroke-linejoin:round;stroke-miterlimit:10;" points="
				387.195,127.221 384.892,131.21 365.715,121.911 369.553,115.263 			"/>
			<polygon style="fill:#C6FF00;stroke:#263238;stroke-linecap:round;stroke-linejoin:round;stroke-miterlimit:10;" points="
				390.061,125.209 386.533,128.17 371.693,112.873 377.573,107.939 			"/>
			<polygon style="fill:#263238;stroke:#263238;stroke-linecap:round;stroke-linejoin:round;stroke-miterlimit:10;" points="
				393.443,124.299 389.115,125.874 380.401,106.424 387.615,103.799 			"/>
			<polygon style="fill:#C6FF00;stroke:#263238;stroke-linecap:round;stroke-linejoin:round;stroke-miterlimit:10;" points="
				396.931,124.6 392.326,124.6 390.79,103.343 398.467,103.343 			"/>
		</g>
		<path style="fill:#263238;stroke:#263238;stroke-linecap:round;stroke-linejoin:round;stroke-miterlimit:10;" d="M396.99,134.343
			c0-1.467-1.19-2.657-2.657-2.657s-2.657,1.19-2.657,2.657s1.19,2.657,2.657,2.657S396.99,135.81,396.99,134.343z"/>
	</g>
</g>
<g id="Farm">
	<g>
		
			<rect x="297" y="271.833" style="fill:#263238;stroke:#263238;stroke-linecap:round;stroke-linejoin:round;stroke-miterlimit:10;" width="99" height="66.5"/>
		<polygon style="fill:#C6FF00;stroke:#263238;stroke-linecap:round;stroke-linejoin:round;stroke-miterlimit:10;" points="
			299.333,338.333 166.667,338.333 166.667,271.667 191.129,209.193 232,189.333 274.128,209.333 299.333,271.667 		"/>
		<g>
			<polygon style="fill:#FFFFFF;stroke:#263238;stroke-linecap:round;stroke-linejoin:round;stroke-miterlimit:10;" points="
				160.868,279.022 157.927,274.978 164.856,269.939 189.44,207.266 232.051,186.56 275.921,207.386 301.213,269.859 
				308.073,274.225 305.388,278.442 297.582,273.474 297.282,273 272.464,211.28 232.077,192.107 192.946,211.121 168.605,273.395 
							"/>
		</g>
		
			<rect x="222" y="214" style="fill:#C6FF00;stroke:#263238;stroke-linecap:round;stroke-linejoin:round;stroke-miterlimit:10;" width="22" height="56.167"/>
		
			<rect x="210" y="278.167" style="fill:#FFFFFF;stroke:#263238;stroke-linecap:round;stroke-linejoin:round;stroke-miterlimit:10;" width="46" height="60.167"/>
		
			<rect x="195.333" y="268.167" style="fill:#C6FF00;stroke:#263238;stroke-linecap:round;stroke-linejoin:round;stroke-miterlimit:10;" width="75.333" height="4"/>
		
			<rect x="195.333" y="210" style="fill:#C6FF00;stroke:#263238;stroke-linecap:round;stroke-linejoin:round;stroke-miterlimit:10;" width="75.333" height="4"/>
		<g>
			<polygon style="fill:#263238;" points="220.265,309.762 212.5,286.965 212.5,332.559 			"/>
			<polygon style="fill:#263238;" points="229.211,283.5 213.68,283.5 221.445,306.297 			"/>
			<polygon style="fill:#263238;" points="221.445,313.227 213.68,336.024 229.211,336.024 			"/>
			<polygon style="fill:#263238;" points="222.626,309.762 230.391,332.559 230.391,286.965 			"/>
		</g>
		<g>
			<polygon style="fill:#263238;" points="252.197,283.5 236.666,283.5 244.432,306.297 			"/>
			<polygon style="fill:#263238;" points="243.251,309.762 235.609,287.326 235.609,332.198 			"/>
			<polygon style="fill:#263238;" points="245.612,309.762 253.5,332.92 253.5,286.604 			"/>
			<polygon style="fill:#263238;" points="244.432,313.227 236.666,336.024 252.197,336.024 			"/>
		</g>
		<g>
			<defs>
				<polygon id="XMLID_1_" points="404.073,274.225 397.213,269.859 371.921,207.386 328.051,186.56 232.051,186.56 
					275.921,207.386 301.213,269.859 308.073,274.225 394.761,274.225 401.388,278.442 				"/>
			</defs>
			<use xlink:href="#XMLID_1_"  style="overflow:visible;fill:#263238;"/>
			<clipPath id="XMLID_00000008140966254696607640000000833897221098465158_">
				<use xlink:href="#XMLID_1_"  style="overflow:visible;"/>
			</clipPath>
			<polygon style="opacity:0.5;clip-path:url(#XMLID_00000008140966254696607640000000833897221098465158_);fill:#FFFFFF;" points="
				404.073,274.225 397.213,269.859 371.921,207.386 328.051,186.56 232.051,186.56 275.921,207.386 301.213,269.859 
				308.073,274.225 394.761,274.225 401.388,278.442 			"/>
			<polygon style="opacity:0.5;clip-path:url(#XMLID_00000008140966254696607640000000833897221098465158_);fill:#FFFFFF;" points="
				275.921,207.386 371.921,207.386 328.051,186.56 232.051,186.56 			"/>
			
				<use xlink:href="#XMLID_1_"  style="overflow:visible;fill:none;stroke:#263238;stroke-linecap:round;stroke-linejoin:round;stroke-miterlimit:10;"/>
		</g>
		<polygon style="fill:#FFFFFF;stroke:#263238;stroke-linecap:round;stroke-linejoin:round;stroke-miterlimit:10;" points="
			308.073,274.225 404.073,274.225 401.388,278.442 305.388,278.442 		"/>
		<g>
			<rect x="308.122" y="289.5" style="fill:#FFFFFF;" width="4.75" height="7.662"/>
			<rect x="313.872" y="289.5" style="fill:#FFFFFF;" width="4.75" height="7.662"/>
			<rect x="308.122" y="298.162" style="fill:#FFFFFF;" width="4.75" height="6.838"/>
			<rect x="313.872" y="298.162" style="fill:#FFFFFF;" width="4.75" height="6.838"/>
		</g>
		<g>
			<rect x="327.789" y="289.5" style="fill:#FFFFFF;" width="4.75" height="7.662"/>
			<rect x="333.539" y="289.5" style="fill:#FFFFFF;" width="4.75" height="7.662"/>
			<rect x="327.789" y="298.162" style="fill:#FFFFFF;" width="4.75" height="6.838"/>
			<rect x="333.539" y="298.162" style="fill:#FFFFFF;" width="4.75" height="6.838"/>
		</g>
		<g>
			<rect x="360.122" y="289.5" style="fill:#FFFFFF;" width="4.75" height="7.662"/>
			<rect x="365.872" y="289.5" style="fill:#FFFFFF;" width="4.75" height="7.662"/>
			<rect x="360.122" y="298.162" style="fill:#FFFFFF;" width="4.75" height="6.838"/>
			<rect x="365.872" y="298.162" style="fill:#FFFFFF;" width="4.75" height="6.838"/>
		</g>
		<g>
			<rect x="379.789" y="289.5" style="fill:#FFFFFF;" width="4.75" height="7.662"/>
			<rect x="385.539" y="289.5" style="fill:#FFFFFF;" width="4.75" height="7.662"/>
			<rect x="379.789" y="298.162" style="fill:#FFFFFF;" width="4.75" height="6.838"/>
			<rect x="385.539" y="298.162" style="fill:#FFFFFF;" width="4.75" height="6.838"/>
		</g>
		<rect x="341.667" y="280.667" style="fill:#FFFFFF;" width="14" height="6.667"/>
		<g>
			<path style="fill:#FFFFFF;stroke:#263238;stroke-linecap:round;stroke-linejoin:round;stroke-miterlimit:10;" d="
				M443.667,319.666v3.662h-10.986v-3.662h-2.746v3.662h-10.986v-3.662h-2.746v3.662h-10.986v-3.662h-2.747v3.662h-10.986v-3.662
				h-2.746v3.662h-10.986v-3.662h-2.747v3.662h-10.986v-3.662h-2.746v3.662h-10.986v-3.662h-2.746v3.662h-10.986v-3.662h-2.746
				v3.662h-10.986v-3.662h-2.747v24.719h2.747v-8.24h10.986v8.24h2.746v-8.24h10.986v8.24h2.746v-8.24h10.986v8.24h2.746v-8.24
				h10.986v8.24h2.747v-8.24h10.986v8.24h2.746v-8.24h10.986v8.24h2.747v-8.24h10.986v8.24h2.746v-8.24h10.986v8.24h2.746v-8.24
				h10.986v8.24h2.747v-24.719H443.667z M322.821,332.94v-6.408h10.986v6.408H322.821z M336.553,332.94v-6.408h10.986v6.408H336.553
				z M350.286,332.94v-6.408h10.986v6.408H350.286z M364.018,332.94v-6.408h10.986v6.408H364.018z M377.751,332.94v-6.408h10.986
				v6.408H377.751z M391.483,332.94v-6.408h10.986v6.408H391.483z M405.216,332.94v-6.408h10.986v6.408H405.216z M418.948,332.94
				v-6.408h10.986v6.408H418.948z M432.681,332.94v-6.408h10.986v6.408H432.681z"/>
			
				<line style="fill:none;stroke:#263238;stroke-linecap:round;stroke-linejoin:round;stroke-miterlimit:10;" x1="320.074" y1="344.384" x2="446.413" y2="344.384"/>
		</g>
	</g>
</g>
<g id="Plants">
	<g>
		<g>
			<g>
				<g>
					<path style="fill:#C6FF00;" d="M351.214,334.148c-0.03,0.003,0.372-1.989,0.411-2.111c0.461-1.421,2.186-3.896,3.859-3.892
						c1.205,0.002,2.021,1.099,1.902,2.249c-0.121,1.175-1.176,2.176-2.13,2.754C354.135,333.825,351.216,334.147,351.214,334.148z"
						/>
					<path style="fill:#C6FF00;" d="M347.975,320.75c1.574,0.565,2.357,3.478,2.308,4.971c-0.004,0.129-0.302,2.139-0.33,2.126
						c0,0-0.026-0.013-0.032-0.016c0.127,0.459,0.258,0.952,0.39,1.495c0.236,1.003,0.494,2.138,0.691,3.393
						c0.2,1.253,0.383,2.621,0.445,4.078c0.064,1.461,0.057,3.001-0.155,4.587c-0.002,0.018-0.007,0.036-0.01,0.054
						c0.206-0.445,0.824-1.668,0.882-1.757c0.819-1.249,3.137-3.18,4.75-2.736c1.162,0.32,1.659,1.594,1.241,2.672
						c-0.427,1.101-1.709,1.788-2.782,2.093c-1.21,0.344-3.908-0.063-4.122-0.096c-0.216,1.509-0.56,3.039-0.994,4.569
						c-0.247,0.875-0.523,1.748-0.811,2.621c0.191-0.379,0.364-0.716,0.393-0.76c0.82-1.249,3.137-3.18,4.749-2.736
						c1.162,0.32,1.659,1.594,1.241,2.672c-0.427,1.101-1.709,1.788-2.782,2.094c-1.089,0.31-3.396,0.009-4.005-0.079
						c-0.114,0.333-0.224,0.668-0.339,1.001c-0.552,1.598-1.111,3.19-1.61,4.768c-0.177,0.556-0.33,1.11-0.485,1.664
						c0.17-0.336,0.315-0.618,0.342-0.658c0.82-1.249,3.137-3.18,4.749-2.736c1.162,0.32,1.659,1.594,1.241,2.672
						c-0.427,1.1-1.709,1.788-2.782,2.093c-1.039,0.296-3.171,0.037-3.896-0.064c-0.142,0.572-0.285,1.145-0.397,1.706
						c-0.068,0.384-0.159,0.75-0.206,1.14c-0.054,0.385-0.108,0.767-0.161,1.144c-0.075,0.731-0.158,1.485-0.214,2.2
						c-0.043,0.497-0.074,0.971-0.107,1.449c0.169-0.556,0.523-1.637,0.563-1.723c0.413-0.903,1.434-2.2,2.56-2.914
						c0.06-0.134,0.132-0.262,0.216-0.382c0.663-0.947,1.998-1.241,2.911-0.454c1.266,1.093,0.95,4.093,0.367,5.468
						c-0.034,0.081-0.505,0.92-0.811,1.444c0.227-0.281,0.444-0.556,0.681-0.842c0.465-0.569,0.945-1.124,1.46-1.722
						c0.259-0.28,0.52-0.563,0.784-0.849c0.256-0.289,0.563-0.562,0.845-0.847c0.669-0.647,1.379-1.27,2.108-1.881
						c-0.497-0.408-2.243-1.883-2.745-2.885c-0.5-0.997-0.859-2.407-0.336-3.465c0.512-1.037,1.787-1.53,2.808-0.89
						c1.417,0.889,1.559,3.902,1.192,5.35c-0.023,0.09-0.403,1.099-0.623,1.65c0.441-0.364,0.879-0.73,1.337-1.084
						c1.322-1.022,2.693-2.016,4.055-3.013c0.418-0.305,0.83-0.614,1.244-0.922c-0.179-0.143-2.291-1.851-2.854-2.973
						c-0.5-0.997-0.859-2.407-0.336-3.466c0.512-1.036,1.787-1.53,2.808-0.89c1.417,0.889,1.559,3.902,1.192,5.35
						c-0.028,0.109-0.577,1.561-0.735,1.923c0.911-0.678,1.813-1.363,2.675-2.074c1.19-0.979,2.304-2.006,3.31-3.081
						c-0.083-0.067-2.296-1.839-2.872-2.988c-0.5-0.997-0.859-2.407-0.336-3.465c0.512-1.036,1.787-1.53,2.808-0.89
						c1.417,0.888,1.559,3.902,1.192,5.35c-0.024,0.095-0.442,1.202-0.652,1.723c0.044,0.028,0.036,0.023,0.081,0.051
						c1.064-1.164,1.947-2.426,2.716-3.647c0.447-0.707,0.834-1.407,1.195-2.097c-0.446-0.288-2.47-1.626-3.102-2.603
						c-0.606-0.936-1.118-2.298-0.715-3.408c0.395-1.087,1.608-1.717,2.693-1.193c1.506,0.728,1.978,3.707,1.772,5.186
						c-0.011,0.081-0.215,0.886-0.372,1.47c0.158-0.314,0.327-0.635,0.473-0.939c0.55-1.139,0.984-2.216,1.36-3.173
						c0.21-0.546,0.388-1.043,0.551-1.511c-0.29-0.511-1.434-2.584-1.544-3.722c-0.107-1.11,0.066-2.555,0.936-3.354
						c0.852-0.782,2.219-0.783,2.94,0.182c1.001,1.34,0.047,4.201-0.817,5.42c-0.075,0.105-1.432,1.617-1.448,1.591
						c0,0-0.014-0.025-0.018-0.031c-0.147,0.453-0.31,0.937-0.499,1.462c-0.356,0.967-0.768,2.056-1.295,3.212
						c-0.524,1.156-1.126,2.397-1.879,3.647c-0.752,1.254-1.608,2.535-2.66,3.74c-0.012,0.014-0.026,0.026-0.038,0.04
						c0.417-0.257,1.608-0.937,1.705-0.979c1.372-0.59,4.371-0.922,5.47,0.338c0.792,0.908,0.505,2.245-0.439,2.913
						c-0.964,0.683-2.412,0.548-3.475,0.211c-1.199-0.38-3.225-2.208-3.386-2.354c-1.013,1.139-2.144,2.225-3.349,3.262
						c-0.688,0.594-1.401,1.17-2.122,1.738c0.368-0.211,0.699-0.396,0.747-0.417c1.373-0.589,4.371-0.922,5.471,0.339
						c0.792,0.908,0.505,2.245-0.439,2.913c-0.964,0.683-2.412,0.549-3.475,0.211c-1.079-0.342-2.837-1.866-3.297-2.275
						c-0.279,0.215-0.555,0.433-0.835,0.647c-1.342,1.028-2.686,2.048-3.974,3.089c-0.454,0.367-0.887,0.744-1.323,1.12
						c0.327-0.187,0.604-0.341,0.649-0.36c1.372-0.59,4.371-0.922,5.47,0.339c0.792,0.908,0.505,2.245-0.439,2.913
						c-0.964,0.682-2.412,0.548-3.475,0.211c-1.03-0.327-2.665-1.718-3.214-2.202c-0.434,0.399-0.869,0.798-1.272,1.203
						c-0.268,0.284-0.547,0.538-0.801,0.837c-0.258,0.292-0.513,0.58-0.765,0.866c-0.466,0.568-0.951,1.152-1.392,1.717
						c-0.31,0.391-0.598,0.769-0.889,1.15c0.447-0.37,1.339-1.076,1.42-1.127c1.267-0.791,4.18-1.573,5.459-0.494
						c0.921,0.778,0.839,2.142,0.008,2.946c-0.849,0.821-2.301,0.908-3.403,0.735c-1.214-0.19-3.41-1.621-3.683-1.801
						c-0.479,0.631-0.94,1.249-1.365,1.84c-1.478,2.043-2.632,3.802-3.421,5.041c-0.028,0.044-0.053,0.084-0.08,0.126l-1.023-0.497
						c0.053-0.08,0.104-0.158,0.161-0.243c0.826-1.237,2.029-2.986,3.566-5.017c0.484-0.643,1.015-1.32,1.566-2.01
						c-0.142-0.155-0.944-1.043-1.588-1.966c-1.175,0.46-3.622,0.479-3.938,0.479c-0.052,0.791-0.095,1.56-0.123,2.288
						c-0.106,2.52-0.098,4.623-0.072,6.092c0.001,0.06,0.002,0.114,0.003,0.172l-1.125-0.546c0.011-1.46,0.055-3.435,0.204-5.769
						c0.049-0.803,0.118-1.661,0.197-2.54c-0.312-0.078-2.856-0.732-3.818-1.499c-0.872-0.696-1.788-1.826-1.757-3.006
						c0.031-1.156,0.982-2.138,2.177-1.984c1.659,0.213,3.05,2.89,3.323,4.358c0.016,0.087,0.086,1.046,0.12,1.652
						c0.034-0.359,0.063-0.708,0.103-1.078c0.074-0.731,0.168-1.458,0.268-2.241c0.061-0.376,0.123-0.757,0.186-1.141
						c0.054-0.382,0.159-0.779,0.237-1.172c0.202-0.909,0.45-1.82,0.72-2.732c-0.64-0.066-2.909-0.333-3.881-0.892
						c-0.967-0.556-2.044-1.533-2.192-2.705c-0.145-1.147,0.647-2.262,1.851-2.292c1.672-0.041,3.453,2.394,3.945,3.805
						c0.031,0.088,0.27,1.14,0.391,1.72c0.167-0.547,0.33-1.094,0.517-1.642c0.539-1.582,1.134-3.167,1.72-4.75
						c0.18-0.485,0.353-0.97,0.529-1.455c-0.228-0.021-2.932-0.28-4.02-0.906c-0.967-0.556-2.044-1.534-2.192-2.705
						c-0.144-1.147,0.647-2.262,1.852-2.291c1.672-0.041,3.453,2.394,3.945,3.805c0.037,0.106,0.38,1.62,0.448,2.009
						c0.386-1.069,0.76-2.137,1.087-3.206c0.453-1.474,0.815-2.944,1.061-4.395c-0.106-0.01-2.93-0.267-4.044-0.908
						c-0.967-0.556-2.044-1.533-2.192-2.705c-0.145-1.147,0.647-2.262,1.851-2.291c1.672-0.041,3.453,2.394,3.945,3.805
						c0.032,0.092,0.294,1.245,0.406,1.797c0.052-0.002,0.043-0.001,0.096-0.003c0.245-1.557,0.286-3.097,0.253-4.54
						c-0.017-0.836-0.081-1.634-0.16-2.409c-0.531,0.006-2.957,0.007-4.024-0.46c-1.022-0.447-2.2-1.3-2.476-2.448
						c-0.27-1.125,0.394-2.32,1.589-2.481c1.658-0.224,3.695,2.001,4.339,3.348c0.035,0.073,0.309,0.858,0.5,1.432
						c-0.041-0.349-0.077-0.71-0.123-1.044c-0.17-1.253-0.402-2.391-0.616-3.397c-0.126-0.571-0.252-1.085-0.374-1.564
						c-0.524-0.266-2.622-1.364-3.341-2.253c-0.701-0.867-1.354-2.168-1.069-3.314C345.701,321.097,346.841,320.342,347.975,320.75z
						"/>
					<path style="fill:#C6FF00;" d="M378.213,346.532c-1.309-0.052-3.921-1.394-3.923-1.395c-0.027-0.014,1.407-1.454,1.508-1.534
						c1.168-0.931,3.972-2.043,5.366-1.118c1.004,0.667,1.079,2.032,0.346,2.925C380.76,346.324,379.328,346.577,378.213,346.532z"
						/>
				</g>
			</g>
			<g>
				<g>
					<path style="fill:#C6FF00;" d="M362.951,379.263c0,0-7.93-19.12-12.371-18.288c-4.441,0.831,7.613,30.481,7.613,30.481
						s-13.956-26.324-23.472-26.324s3.489,29.095,15.542,38.794c0,0-19.031-20.505-30.133-16.072
						c-11.102,4.434,22.203,25.216,22.203,25.216s-19.349-6.096-17.128-1.385c2.22,4.711,8.247,5.542,8.247,5.542l-21.886,1.108
						h76.126l-17.128-1.663c0,0,17.763-8.867,13.005-12.469c-4.758-3.602-15.225,4.156-15.225,4.156s18.08-19.951,14.591-27.432
						c-3.489-7.482-19.031,13.578-19.031,13.578s12.688-26.878,10.15-31.589C371.515,358.203,362.951,379.263,362.951,379.263z"/>
				</g>
				<g>
					<path style="fill:none;stroke:#263238;stroke-linecap:round;stroke-linejoin:round;stroke-miterlimit:10;" d="M365.488,380.27
						c-6.978,20.617-6.978,35.208-6.978,35.208s8.247,0.317,16.811-6.027"/>
					<path style="fill:none;stroke:#263238;stroke-linecap:round;stroke-linejoin:round;stroke-miterlimit:10;" d="M361.999,391.372
						c0,0-1.586-7.613-5.71-18.08"/>
					<path style="fill:none;stroke:#263238;stroke-linecap:round;stroke-linejoin:round;stroke-miterlimit:10;" d="M341.382,379.319
						l17.763,26.327c0,0,12.053-10.15,16.177-15.86"/>
					<path style="fill:none;stroke:#263238;stroke-linecap:round;stroke-linejoin:round;stroke-miterlimit:10;" d="M358.827,411.99
						c0,0-18.714-8.881-26.327-13.957"/>
				</g>
			</g>
		</g>
		<g>
			<g>
				<g>
					<path style="fill:#C6FF00;" d="M63.855,328.654c-0.014,0.001,0.169-0.906,0.187-0.962c0.21-0.647,0.996-1.774,1.757-1.773
						c0.549,0.001,0.921,0.5,0.867,1.024c-0.055,0.535-0.536,0.991-0.97,1.254C65.186,328.507,63.856,328.654,63.855,328.654z"/>
					<path style="fill:#C6FF00;" d="M62.38,322.551c0.717,0.257,1.074,1.584,1.051,2.264c-0.002,0.059-0.138,0.974-0.15,0.968
						c0,0-0.012-0.006-0.014-0.007c0.058,0.209,0.118,0.434,0.178,0.681c0.108,0.457,0.225,0.974,0.315,1.546
						c0.091,0.571,0.174,1.194,0.203,1.858c0.029,0.665,0.026,1.367-0.071,2.089c-0.001,0.008-0.003,0.017-0.004,0.025
						c0.094-0.203,0.375-0.76,0.402-0.8c0.373-0.569,1.429-1.449,2.163-1.246c0.529,0.146,0.756,0.726,0.565,1.217
						c-0.195,0.501-0.779,0.815-1.267,0.953c-0.551,0.157-1.78-0.028-1.878-0.043c-0.098,0.687-0.255,1.384-0.453,2.081
						c-0.112,0.398-0.238,0.796-0.369,1.194c0.087-0.173,0.166-0.326,0.179-0.346c0.373-0.569,1.429-1.448,2.163-1.246
						c0.529,0.146,0.756,0.726,0.565,1.217c-0.194,0.501-0.778,0.814-1.267,0.954c-0.496,0.141-1.547,0.004-1.824-0.036
						c-0.052,0.152-0.102,0.304-0.154,0.456c-0.252,0.728-0.506,1.453-0.734,2.172c-0.08,0.253-0.15,0.506-0.221,0.758
						c0.077-0.153,0.144-0.281,0.156-0.3c0.373-0.569,1.429-1.449,2.163-1.246c0.529,0.146,0.756,0.726,0.565,1.217
						c-0.195,0.501-0.779,0.814-1.267,0.954c-0.473,0.135-1.444,0.017-1.774-0.029c-0.065,0.26-0.13,0.521-0.181,0.777
						c-0.031,0.175-0.073,0.342-0.094,0.519c-0.025,0.176-0.049,0.349-0.073,0.521c-0.034,0.333-0.072,0.676-0.097,1.002
						c-0.019,0.226-0.034,0.442-0.049,0.66c0.077-0.253,0.238-0.745,0.256-0.785c0.188-0.411,0.653-1.002,1.166-1.327
						c0.027-0.061,0.06-0.119,0.098-0.174c0.302-0.431,0.91-0.565,1.326-0.207c0.577,0.498,0.433,1.864,0.167,2.491
						c-0.016,0.037-0.23,0.419-0.369,0.658c0.103-0.128,0.202-0.253,0.31-0.384c0.212-0.259,0.43-0.512,0.665-0.784
						c0.118-0.128,0.237-0.257,0.357-0.387c0.116-0.132,0.256-0.256,0.385-0.386c0.305-0.294,0.628-0.578,0.96-0.857
						c-0.227-0.186-1.022-0.858-1.25-1.314c-0.228-0.454-0.391-1.096-0.153-1.578c0.233-0.472,0.814-0.697,1.279-0.405
						c0.646,0.405,0.71,1.777,0.543,2.437c-0.011,0.041-0.184,0.501-0.284,0.751c0.201-0.166,0.401-0.332,0.609-0.494
						c0.602-0.466,1.226-0.918,1.847-1.372c0.19-0.139,0.378-0.28,0.567-0.42c-0.081-0.065-1.044-0.843-1.3-1.354
						c-0.228-0.454-0.391-1.096-0.153-1.578c0.233-0.472,0.814-0.697,1.279-0.405c0.646,0.405,0.71,1.777,0.543,2.437
						c-0.013,0.05-0.263,0.711-0.335,0.876c0.415-0.309,0.826-0.621,1.218-0.945c0.542-0.446,1.05-0.914,1.508-1.403
						c-0.038-0.03-1.046-0.838-1.308-1.361c-0.228-0.454-0.391-1.096-0.153-1.578c0.233-0.472,0.814-0.697,1.279-0.405
						c0.646,0.405,0.71,1.777,0.543,2.437c-0.011,0.043-0.201,0.548-0.297,0.785c0.02,0.013,0.017,0.01,0.037,0.023
						c0.485-0.53,0.887-1.105,1.237-1.661c0.203-0.322,0.38-0.641,0.544-0.955c-0.203-0.131-1.125-0.741-1.413-1.186
						c-0.276-0.427-0.509-1.047-0.325-1.552c0.18-0.495,0.733-0.782,1.227-0.543c0.686,0.331,0.901,1.689,0.807,2.362
						c-0.005,0.037-0.098,0.403-0.17,0.67c0.072-0.143,0.149-0.289,0.216-0.428c0.251-0.519,0.448-1.009,0.62-1.445
						c0.095-0.249,0.177-0.475,0.251-0.688c-0.132-0.233-0.653-1.177-0.703-1.695c-0.049-0.506,0.03-1.164,0.426-1.528
						c0.388-0.356,1.011-0.356,1.339,0.083c0.456,0.61,0.021,1.914-0.372,2.469c-0.034,0.048-0.652,0.737-0.66,0.725
						c0,0-0.007-0.011-0.008-0.014c-0.067,0.206-0.141,0.427-0.227,0.666c-0.162,0.44-0.35,0.937-0.59,1.463
						c-0.239,0.527-0.513,1.092-0.856,1.661c-0.343,0.571-0.732,1.155-1.211,1.704c-0.005,0.006-0.012,0.012-0.017,0.018
						c0.19-0.117,0.732-0.427,0.777-0.446c0.625-0.269,1.991-0.42,2.492,0.154c0.361,0.414,0.23,1.022-0.2,1.327
						c-0.439,0.311-1.099,0.25-1.583,0.096c-0.546-0.173-1.469-1.006-1.542-1.072c-0.461,0.519-0.977,1.014-1.526,1.486
						c-0.314,0.27-0.638,0.533-0.966,0.792c0.168-0.096,0.318-0.181,0.34-0.19c0.625-0.268,1.991-0.42,2.492,0.154
						c0.361,0.414,0.23,1.022-0.2,1.327c-0.439,0.311-1.099,0.25-1.583,0.096c-0.492-0.156-1.292-0.85-1.502-1.036
						c-0.127,0.098-0.253,0.197-0.38,0.295c-0.611,0.468-1.224,0.933-1.81,1.407c-0.207,0.167-0.404,0.339-0.603,0.51
						c0.149-0.085,0.275-0.155,0.296-0.164c0.625-0.268,1.991-0.42,2.492,0.154c0.361,0.414,0.23,1.022-0.2,1.327
						c-0.439,0.311-1.099,0.25-1.583,0.096c-0.469-0.149-1.214-0.783-1.464-1.003c-0.198,0.182-0.396,0.363-0.579,0.548
						c-0.122,0.129-0.249,0.245-0.365,0.381c-0.117,0.133-0.233,0.264-0.349,0.394c-0.212,0.259-0.433,0.525-0.634,0.782
						c-0.141,0.178-0.272,0.35-0.405,0.524c0.204-0.169,0.61-0.49,0.647-0.513c0.577-0.36,1.904-0.717,2.486-0.225
						c0.419,0.354,0.382,0.976,0.003,1.342c-0.387,0.374-1.048,0.413-1.55,0.335c-0.553-0.086-1.553-0.738-1.678-0.82
						c-0.218,0.288-0.428,0.569-0.622,0.838c-0.673,0.931-1.199,1.732-1.558,2.296c-0.013,0.02-0.024,0.038-0.036,0.057
						l-0.466-0.226c0.024-0.036,0.048-0.072,0.073-0.111c0.376-0.563,0.924-1.36,1.625-2.285c0.221-0.293,0.462-0.601,0.713-0.916
						c-0.065-0.071-0.43-0.475-0.723-0.896c-0.535,0.21-1.65,0.218-1.794,0.218c-0.024,0.36-0.043,0.711-0.056,1.042
						c-0.048,1.148-0.045,2.106-0.033,2.775c0,0.028,0.001,0.052,0.002,0.078l-0.513-0.249c0.005-0.665,0.025-1.564,0.093-2.628
						c0.023-0.366,0.054-0.757,0.09-1.157c-0.142-0.036-1.301-0.333-1.739-0.683c-0.397-0.317-0.815-0.832-0.8-1.369
						c0.014-0.526,0.447-0.974,0.992-0.904c0.756,0.097,1.389,1.316,1.514,1.985c0.007,0.039,0.039,0.476,0.055,0.753
						c0.016-0.164,0.029-0.323,0.047-0.491c0.034-0.333,0.077-0.664,0.122-1.021c0.028-0.171,0.056-0.345,0.084-0.52
						c0.024-0.174,0.072-0.355,0.108-0.534c0.092-0.414,0.205-0.829,0.328-1.244c-0.292-0.03-1.325-0.152-1.768-0.406
						c-0.44-0.253-0.931-0.698-0.999-1.232c-0.066-0.523,0.295-1.03,0.843-1.044c0.762-0.018,1.573,1.091,1.797,1.733
						c0.014,0.04,0.123,0.519,0.178,0.783c0.076-0.249,0.151-0.498,0.236-0.748c0.245-0.721,0.516-1.442,0.783-2.164
						c0.082-0.221,0.161-0.442,0.241-0.663c-0.104-0.009-1.336-0.127-1.831-0.412c-0.44-0.253-0.931-0.698-0.999-1.232
						c-0.066-0.523,0.295-1.03,0.843-1.044c0.762-0.018,1.573,1.091,1.797,1.733c0.017,0.048,0.173,0.738,0.204,0.915
						c0.176-0.487,0.346-0.974,0.495-1.46c0.206-0.671,0.371-1.341,0.483-2.002c-0.048-0.004-1.334-0.122-1.842-0.414
						c-0.44-0.253-0.931-0.698-0.999-1.232c-0.066-0.522,0.295-1.03,0.843-1.044c0.762-0.019,1.573,1.091,1.797,1.733
						c0.015,0.042,0.134,0.567,0.185,0.818c0.024-0.001,0.02,0,0.043-0.001c0.112-0.709,0.13-1.411,0.115-2.068
						c-0.008-0.381-0.037-0.744-0.073-1.097c-0.242,0.003-1.347,0.003-1.833-0.209c-0.466-0.203-1.002-0.592-1.128-1.115
						c-0.123-0.512,0.18-1.057,0.724-1.13c0.755-0.102,1.683,0.911,1.977,1.525c0.016,0.033,0.141,0.391,0.228,0.652
						c-0.019-0.159-0.035-0.324-0.056-0.476c-0.077-0.571-0.183-1.089-0.281-1.547c-0.058-0.26-0.115-0.494-0.17-0.712
						c-0.239-0.121-1.194-0.621-1.522-1.026c-0.319-0.395-0.617-0.987-0.487-1.509C61.344,322.709,61.863,322.365,62.38,322.551z"/>
					<path style="fill:#C6FF00;" d="M76.153,334.295c-0.596-0.024-1.786-0.635-1.787-0.635c-0.012-0.006,0.641-0.662,0.687-0.699
						c0.532-0.424,1.809-0.931,2.444-0.509c0.457,0.304,0.492,0.926,0.158,1.333C77.313,334.2,76.661,334.315,76.153,334.295z"/>
				</g>
			</g>
			<g>
				<g>
					<path style="fill:#C6FF00;" d="M69.201,349.203c0,0-3.612-8.709-5.635-8.33c-2.023,0.379,3.467,13.884,3.467,13.884
						s-6.357-11.991-10.692-11.991c-4.334,0,1.589,13.253,7.08,17.67c0,0-8.669-9.34-13.726-7.321
						c-5.057,2.02,10.114,11.486,10.114,11.486s-8.813-2.777-7.802-0.631c1.011,2.146,3.756,2.524,3.756,2.524L45.795,367H80.47
						l-7.802-0.757c0,0,8.091-4.039,5.924-5.68c-2.167-1.641-6.935,1.893-6.935,1.893s8.235-9.088,6.646-12.496
						c-1.589-3.408-8.669,6.185-8.669,6.185s5.779-12.243,4.623-14.389C73.102,339.611,69.201,349.203,69.201,349.203z"/>
				</g>
				<g>
					<path style="fill:none;stroke:#263238;stroke-linecap:round;stroke-linejoin:round;stroke-miterlimit:10;" d="M70.357,349.662
						c-3.178,9.391-3.178,16.037-3.178,16.037s3.756,0.144,7.657-2.745"/>
					<path style="fill:none;stroke:#263238;stroke-linecap:round;stroke-linejoin:round;stroke-miterlimit:10;" d="M68.767,354.719
						c0,0-0.722-3.467-2.601-8.235"/>
					<path style="fill:none;stroke:#263238;stroke-linecap:round;stroke-linejoin:round;stroke-miterlimit:10;" d="M59.376,349.229
						l8.091,11.992c0,0,5.49-4.623,7.368-7.224"/>
					<path style="fill:none;stroke:#263238;stroke-linecap:round;stroke-linejoin:round;stroke-miterlimit:10;" d="M67.323,364.11
						c0,0-8.524-4.046-11.992-6.357"/>
				</g>
			</g>
		</g>
	</g>
</g>
<g id="Car">
	<g>
		
			<line style="fill:none;stroke:#263238;stroke-linecap:round;stroke-linejoin:round;stroke-miterlimit:10;" x1="95.175" y1="344.118" x2="187.587" y2="344.118"/>
		<g>
			<polygon style="fill:#323232;" points="133.466,322.256 135.369,322.256 135.105,338.692 132.621,338.692 			"/>
			<polygon style="fill:#263238;" points="101.181,335.895 117.388,335.895 119.189,338.146 163.18,338.146 184.597,338.146 
				184.597,329.142 102.532,329.142 			"/>
			<path style="fill:#FFFFFF;stroke:#263238;stroke-linecap:round;stroke-linejoin:round;stroke-miterlimit:10;" d="M94.042,321.617
				l0.064,12.477c0,0,0.193,1.093,1.158,1.286c0.965,0.193,3.666,0.129,3.666,0.129l2.958-5.531c0,0,0.707-2.38,3.409-2.444
				c2.701-0.064,14.792,0.579,14.792,0.579s1.543,0.45,2.058,2.38c0.514,1.93,0.322,7.589,0.322,7.589l11.127,0.322l0.386-16.014
				L94.042,321.617z"/>
			<path style="fill:#263238;" d="M180.61,337.631c0-3.73-3.023-6.753-6.753-6.753c-3.729,0-6.753,3.023-6.753,6.753
				c0,3.73,3.023,6.753,6.753,6.753C177.586,344.384,180.61,341.361,180.61,337.631z"/>
			<path style="fill:#FFFFFF;stroke:#263238;stroke-linecap:round;stroke-linejoin:round;stroke-miterlimit:10;" d="
				M179.259,337.631c0-2.984-2.419-5.402-5.403-5.402c-2.984,0-5.402,2.419-5.402,5.402c0,2.984,2.419,5.402,5.402,5.402
				C176.84,343.034,179.259,340.615,179.259,337.631z"/>
			<path style="fill:#FFFFFF;stroke:#263238;stroke-linecap:round;stroke-linejoin:round;stroke-miterlimit:10;" d="
				M177.329,337.631c0-1.918-1.555-3.473-3.473-3.473c-1.918,0-3.473,1.555-3.473,3.473c0,1.918,1.555,3.473,3.473,3.473
				C175.775,341.104,177.329,339.549,177.329,337.631z"/>
			<path style="fill:#FFFFFF;stroke:#263238;stroke-linecap:round;stroke-linejoin:round;stroke-miterlimit:10;" d="
				M175.657,337.631c0-0.995-0.806-1.801-1.801-1.801c-0.994,0-1.801,0.806-1.801,1.801c0,0.995,0.806,1.801,1.801,1.801
				C174.851,339.432,175.657,338.626,175.657,337.631z"/>
			<path style="fill:#263238;" d="M118.996,337.631c0-3.73-3.023-6.753-6.753-6.753s-6.753,3.023-6.753,6.753
				c0,3.73,3.023,6.753,6.753,6.753S118.996,341.361,118.996,337.631z"/>
			<path style="fill:#FFFFFF;stroke:#263238;stroke-linecap:round;stroke-linejoin:round;stroke-miterlimit:10;" d="
				M117.646,337.631c0-2.984-2.419-5.402-5.402-5.402c-2.984,0-5.402,2.419-5.402,5.402c0,2.984,2.419,5.402,5.402,5.402
				C115.227,343.034,117.646,340.615,117.646,337.631z"/>
			<path style="fill:#FFFFFF;stroke:#263238;stroke-linecap:round;stroke-linejoin:round;stroke-miterlimit:10;" d="
				M115.716,337.631c0-1.918-1.555-3.473-3.473-3.473c-1.918,0-3.473,1.555-3.473,3.473c0,1.918,1.555,3.473,3.473,3.473
				C114.161,341.104,115.716,339.549,115.716,337.631z"/>
			<path style="fill:#FFFFFF;stroke:#263238;stroke-linecap:round;stroke-linejoin:round;stroke-miterlimit:10;" d="
				M114.044,337.631c0-0.995-0.806-1.801-1.801-1.801c-0.994,0-1.801,0.806-1.801,1.801c0,0.995,0.806,1.801,1.801,1.801
				C113.238,339.432,114.044,338.626,114.044,337.631z"/>
			<path style="fill:#FFFFFF;stroke:#263238;stroke-linecap:round;stroke-linejoin:round;stroke-miterlimit:10;" d="
				M138.658,311.102c0,0-2.807,0.138-2.761,0.506c0.046,0.368,0.414,1.104,0.414,1.104l-1.795,9.249c0,0-0.322,1.841-0.322,2.761
				c0,0.92-0.276,13.437-0.276,13.437s0.184,0.644,1.058,0.736c0.874,0.092,27.978,0.506,27.978,0.506s0.644-0.23,1.427-1.151
				c0.782-0.92,4.51-5.66,8.881-6.994c4.371-1.334,7.501,0.46,8.559,1.427c1.058,0.966,1.196,4.464,1.335,5.154
				c0.138,0.69,1.381,0.736,1.657,0.736c0.276,0,1.933-0.184,2.301-0.69c0.368-0.506,0.552-2.071,0.552-2.347s-0.23-0.69-0.23-0.69
				l1.242-5.246c0,0,0.276-1.012-0.046-1.242c-0.322-0.23-1.15-0.322-1.288-0.828c-0.138-0.506,0.552-1.473,0.046-2.209
				c-0.506-0.736-2.393-1.473-3.773-1.795c-1.38-0.322-9.433-0.92-9.433-0.92l-12.747-0.69l-3.221-4.878l-2.761-4.326
				c0,0,0.368-0.506-0.184-0.874c-0.552-0.368-2.117-0.506-5.2-0.736C146.987,310.872,138.658,311.102,138.658,311.102z"/>
			<path style="fill:#FFFFFF;stroke:#263238;stroke-linecap:round;stroke-linejoin:round;stroke-miterlimit:10;" d="
				M136.361,338.467l0.322-13.763c0,0-0.322-0.643,0.45-1.672c0.772-1.029,1.544-1.672,1.544-1.672l1.158-7.332
				c0,0,0.064-1.608,1.865-1.801c1.801-0.193,11.834,0.193,11.834,0.193l4.052,9.583c0,0,0.579,1.543,0.514,3.473
				c-0.064,1.929-0.643,13.506-0.643,13.506L136.361,338.467z"/>
			<path style="fill:#FFFFFF;stroke:#263238;stroke-linecap:round;stroke-linejoin:round;stroke-miterlimit:10;" d="M155.27,311.839
				c-0.552-0.368-2.117-0.506-5.2-0.736s-11.412,0-11.412,0s-2.807,0.138-2.761,0.506c0.017,0.138,0.08,0.328,0.151,0.511h19.478
				C155.482,312.024,155.403,311.927,155.27,311.839z"/>
			<path style="fill:#FFFFFF;stroke:#263238;stroke-linecap:round;stroke-linejoin:round;stroke-miterlimit:10;" d="
				M151.635,313.311l-8.743-0.092c0,0-1.196-0.092-1.611,1.335c-0.414,1.427-0.966,6.35-0.966,6.35s0,0.69,0.966,0.736
				c0.966,0.046,13.759,0.276,13.759,0.276s0.92,0,0.92-0.874s-2.991-7.179-2.991-7.179S152.785,313.035,151.635,313.311z"/>
			<g>
				<path style="fill:#263238;" d="M155.04,321.904l-4.309-0.075l1.277-8.581l0.251,0.029c0.702,0.081,0.909,0.583,0.952,0.717
					c0.35,0.694,3.007,5.998,3.007,6.844C156.217,321.621,155.513,321.904,155.04,321.904z M151.321,321.355l3.724,0.064
					c0.105-0.001,0.659-0.035,0.659-0.581c0-0.56-1.819-4.379-2.966-6.654l-0.019-0.05c-0.006-0.023-0.062-0.202-0.277-0.307
					L151.321,321.355z"/>
			</g>
			<path style="fill:#FFFFFF;stroke:#263238;stroke-linecap:round;stroke-linejoin:round;stroke-miterlimit:10;" d="
				M151.903,313.266l-1.291,8.569c0.21,0.004,0.417,0.008,0.618,0.012l1.281-8.504C152.361,313.275,152.163,313.239,151.903,313.266
				z"/>
			<path style="fill:#FFFFFF;stroke:#263238;stroke-linecap:round;stroke-linejoin:round;stroke-miterlimit:10;" d="
				M158.215,317.038l-2.761-4.326c0,0-0.874-0.046-0.506,1.104c0.368,1.15,3.037,7.225,3.037,7.225s0.46,0.552,1.426,0.736
				c0.966,0.184,2.347,0.23,2.347,0.23l-0.005-0.075l-0.318-0.017L158.215,317.038z"/>
			<polygon style="fill:#263238;" points="94.05,323.165 133.941,324.088 133.981,322.389 94.042,321.617 			"/>
			<g>
				<g>
					<g>
						<path style="fill:#FFFFFF;" d="M134.131,322.71c-0.003,0-0.006,0-0.009,0l-40.925-0.965c-0.213-0.005-0.381-0.182-0.376-0.395
							c0.005-0.213,0.187-0.373,0.394-0.377l40.925,0.965c0.213,0.005,0.381,0.182,0.376,0.395
							C134.512,322.543,134.34,322.71,134.131,322.71z"/>
						<path style="fill:none;stroke:#263238;stroke-linecap:round;stroke-linejoin:round;stroke-miterlimit:10;" d="M134.131,322.71
							c-0.003,0-0.006,0-0.009,0l-40.925-0.965c-0.213-0.005-0.381-0.182-0.376-0.395c0.005-0.213,0.187-0.373,0.394-0.377
							l40.925,0.965c0.213,0.005,0.381,0.182,0.376,0.395C134.512,322.543,134.34,322.71,134.131,322.71z"/>
					</g>
				</g>
			</g>
			<path style="fill:#FFFFFF;stroke:#263238;stroke-linecap:round;stroke-linejoin:round;stroke-miterlimit:10;" d="M96.293,337.888
				l4.824,0.965l2.251-7.075c0,0,0.322-1.351,3.28-1.672c2.959-0.322,8.554-0.322,10.741,0.322c2.187,0.643,2.444,2.444,2.766,4.373
				c0.322,1.93,0.129,4.759,0.643,5.081c0.515,0.322,3.602,0.064,4.18-0.064c0.579-0.129,1.222-8.039,1.029-9.969
				c-0.193-1.93-2.444-4.181-5.595-4.309c-3.151-0.129-12.541-0.386-16.722,0.193c-4.18,0.579-5.66,2.38-6.303,4.952
				C96.743,333.258,96.293,337.888,96.293,337.888z"/>
			<path style="fill:#FFFFFF;stroke:#263238;stroke-linecap:round;stroke-linejoin:round;stroke-miterlimit:10;" d="
				M187.113,337.884c0.368-0.506,0.552-2.071,0.552-2.347s-0.23-0.69-0.23-0.69l1.242-5.246c0,0,0.276-1.012-0.046-1.242
				c-0.161-0.115-0.449-0.196-0.713-0.311c-4.447-0.297-14.85-0.858-19.143,1.158c-4.657,2.188-9.509,8.536-10.671,10.121
				c2.886,0.046,4.85,0.076,4.85,0.076s0.644-0.23,1.426-1.15c0.782-0.92,4.51-5.66,8.881-6.994c4.371-1.334,7.501,0.46,8.559,1.427
				c1.058,0.966,1.196,4.464,1.335,5.154c0.138,0.69,1.381,0.736,1.657,0.736C185.088,338.574,186.745,338.39,187.113,337.884z"/>
			<path style="fill:#FFFFFF;stroke:#263238;stroke-linecap:round;stroke-linejoin:round;stroke-miterlimit:10;" d="
				M187.435,334.847h1.621l0.075,0.074c0.431,0.43,0.598,1.058,0.436,1.645l-0.383,1.394c-0.169,0.617-0.779,1.004-1.409,0.895
				l-1.376-0.237C186.398,338.617,185.386,336.307,187.435,334.847z"/>
			<g>
				<path style="fill:#263238;" d="M139.906,322.796c0,0,0.129,0.514-0.172,0.643c-0.3,0.129-0.9-0.043-1.158-0.343
					c-0.257-0.3-0.043-0.686,0.643-0.686C139.906,322.41,139.906,322.796,139.906,322.796z"/>
				<path style="fill:#263238;" d="M138.449,322.667c0,0,2.444-0.514,4.631,0.086c0,0-0.3,0.171-0.6,0.171
					C142.179,322.925,137.805,322.925,138.449,322.667z"/>
			</g>
		</g>
	</g>
</g>
</svg>
